<svg xmlns="http://www.w3.org/2000/svg" xmlns:xlink="http://www.w3.org/1999/xlink" id="Layer_1" x="0px" y="0px" viewBox="0 0 279.3 74.1" style="enable-background:new 0 0 279.3 74.1;" xml:space="preserve"><style type="text/css">	.st0{fill:#E45D25;}	.st1{fill:#FFFFFF;}	.st2{fill:url(#XMLID_00000008838784502954793200000002438770131540490626_);}</style><g>	<g id="XMLID_4_">		<g id="XMLID_3_">			<g id="XMLID_27_">				<g id="XMLID_59_">					<path class="st0" d="M116.7,60.3v6.4H95.8v-25h20.4V48h-12.1V51h10.6V57h-10.6v3.3H116.7z"></path>				</g>				<g id="XMLID_57_">					<path class="st0" d="M119.9,41.7h8.4v18.5h11.3v6.5h-19.8V41.7z"></path>				</g>				<g id="XMLID_55_">					<path class="st0" d="M162.8,60.3v6.4H142v-25h20.4V48h-12.1V51h10.6V57h-10.6v3.3H162.8z"></path>				</g>				<g id="XMLID_53_">					<path class="st0" d="M171.9,65.6c-2.1-1.1-3.8-2.7-5-4.7c-1.2-2-1.8-4.3-1.8-6.8c0-2.5,0.6-4.8,1.8-6.8c1.2-2,2.9-3.5,5-4.7      c2.1-1.1,4.5-1.7,7.2-1.7c2.4,0,4.6,0.4,6.5,1.3c1.9,0.9,3.5,2.1,4.7,3.7l-5.3,4.8c-1.6-2-3.4-2.9-5.5-2.9      c-1.8,0-3.2,0.6-4.3,1.7c-1.1,1.1-1.6,2.7-1.6,4.6c0,1.9,0.5,3.4,1.6,4.6c1.1,1.1,2.5,1.7,4.3,1.7c2.1,0,3.9-1,5.5-2.9l5.3,4.8      c-1.2,1.6-2.8,2.9-4.7,3.7c-1.9,0.9-4.1,1.3-6.5,1.3C176.4,67.3,174,66.7,171.9,65.6z"></path>				</g>				<g id="XMLID_51_">					<path class="st0" d="M198,48.2h-7.3v-6.5h23.1v6.5h-7.3v18.5H198V48.2z"></path>				</g>				<g id="XMLID_48_">					<path class="st0" d="M226.7,60.4h-2.3v6.3h-8.4v-25H228c2.3,0,4.3,0.4,6,1.1c1.7,0.8,3,1.9,4,3.3c0.9,1.4,1.4,3.1,1.4,5      c0,1.8-0.4,3.4-1.2,4.7c-0.8,1.3-2,2.4-3.5,3.2l5.3,7.7h-9L226.7,60.4z M230,48.9c-0.6-0.5-1.4-0.8-2.6-0.8h-3.1V54h3.1      c1.1,0,2-0.3,2.6-0.8c0.6-0.5,0.9-1.2,0.9-2.2C230.9,50.2,230.6,49.4,230,48.9z"></path>				</g>				<g id="XMLID_46_">					<path class="st0" d="M242.6,41.7h8.4v25h-8.4V41.7z"></path>				</g>				<g id="XMLID_19_">					<path class="st0" d="M260.9,65.6c-2.1-1.1-3.8-2.7-5-4.7c-1.2-2-1.8-4.3-1.8-6.8c0-2.5,0.6-4.8,1.8-6.8c1.2-2,2.9-3.5,5-4.7      c2.1-1.1,4.5-1.7,7.2-1.7c2.4,0,4.6,0.4,6.5,1.3c1.9,0.9,3.5,2.1,4.7,3.7l-5.3,4.8c-1.6-2-3.4-2.9-5.5-2.9      c-1.8,0-3.2,0.6-4.3,1.7c-1.1,1.1-1.6,2.7-1.6,4.6c0,1.9,0.5,3.4,1.6,4.6c1.1,1.1,2.5,1.7,4.3,1.7c2.1,0,3.9-1,5.5-2.9l5.3,4.8      c-1.2,1.6-2.8,2.9-4.7,3.7c-1.9,0.9-4.1,1.3-6.5,1.3C265.4,67.3,263,66.7,260.9,65.6z"></path>				</g>			</g>			<g id="XMLID_5_">				<g id="XMLID_6_">					<path class="st1" d="M100.9,31.2c-1.9-0.4-3.4-1-4.6-1.8l2.6-5.9c1.1,0.7,2.4,1.2,3.8,1.6c1.4,0.4,2.8,0.6,4.1,0.6      c1.1,0,1.9-0.1,2.4-0.3c0.5-0.2,0.7-0.5,0.7-1c0-0.5-0.3-0.9-0.9-1.1c-0.6-0.3-1.7-0.5-3.1-0.8c-1.8-0.4-3.4-0.8-4.6-1.2      c-1.2-0.4-2.3-1.2-3.2-2.2c-0.9-1-1.4-2.4-1.4-4.1c0-1.5,0.4-2.9,1.3-4.1c0.8-1.2,2.1-2.2,3.8-2.9c1.7-0.7,3.7-1.1,6.1-1.1      c1.6,0,3.3,0.2,4.8,0.5c1.6,0.4,3,0.9,4.2,1.6l-2.4,5.8c-2.3-1.2-4.6-1.8-6.7-1.8c-2.1,0-3.1,0.5-3.1,1.5      c0,0.5,0.3,0.8,0.9,1.1c0.6,0.2,1.6,0.5,3,0.8c1.8,0.3,3.4,0.7,4.6,1.2c1.3,0.4,2.3,1.2,3.3,2.2c0.9,1,1.4,2.4,1.4,4.1      c0,1.5-0.4,2.9-1.3,4.1c-0.8,1.2-2.1,2.2-3.8,2.9c-1.7,0.7-3.7,1.1-6.1,1.1C104.7,31.9,102.8,31.7,100.9,31.2z"></path>				</g>				<g id="XMLID_8_">					<path class="st1" d="M125.8,30.3c-2-1.1-3.6-2.5-4.8-4.4c-1.2-1.9-1.7-4.1-1.7-6.5c0-2.4,0.6-4.6,1.7-6.5      c1.2-1.9,2.7-3.4,4.8-4.4c2-1.1,4.3-1.6,6.8-1.6c2.3,0,4.4,0.4,6.2,1.2c1.8,0.8,3.3,2,4.5,3.6l-5.1,4.5      c-1.5-1.9-3.2-2.8-5.2-2.8c-1.7,0-3,0.5-4.1,1.6c-1,1.1-1.5,2.5-1.5,4.4c0,1.8,0.5,3.3,1.5,4.4c1,1.1,2.4,1.6,4.1,1.6      c2,0,3.7-0.9,5.2-2.8l5.1,4.5c-1.2,1.6-2.7,2.7-4.5,3.6c-1.8,0.8-3.9,1.2-6.2,1.2C130.1,31.9,127.8,31.4,125.8,30.3z"></path>				</g>				<g id="XMLID_10_">					<path class="st1" d="M169.3,7.4v23.9h-8.1v-8.8h-7.5v8.8h-8.1V7.4h8.1v8.5h7.5V7.4H169.3z"></path>				</g>				<g id="XMLID_12_">					<path class="st1" d="M173.2,7.4h8.1v23.9h-8.1V7.4z"></path>				</g>				<g id="XMLID_14_">					<path class="st1" d="M207.6,21.1c0.8,1,1.2,2.2,1.2,3.6c0,2.1-0.9,3.7-2.6,4.9c-1.7,1.2-4.2,1.7-7.5,1.7h-13.5V7.4h12.8      c3.2,0,5.6,0.6,7.2,1.7c1.6,1.1,2.4,2.7,2.4,4.5c0,1.1-0.3,2.1-0.8,3c-0.6,0.9-1.4,1.6-2.5,2.2      C205.7,19.4,206.8,20.1,207.6,21.1z M193.1,13.1v3.6h3.8c1.8,0,2.6-0.6,2.6-1.8c0-1.2-0.9-1.8-2.6-1.8H193.1z M200.6,23.8      c0-1.3-0.9-1.9-2.7-1.9h-4.9v3.8h4.9C199.7,25.7,200.6,25.1,200.6,23.8z"></path>				</g>				<g id="XMLID_20_">					<path class="st1" d="M211.6,7.4h8.1v17.7h10.8v6.3h-18.9V7.4z"></path>				</g>				<g id="XMLID_22_">					<path class="st1" d="M252.6,25.3v6.1h-19.9V7.4h19.5v6.1h-11.5v2.8h10.1v5.8h-10.1v3.1H252.6z"></path>				</g>				<g id="XMLID_24_">					<path class="st1" d="M265.9,25.3h-2.2v6h-8.1V7.4h11.5c2.2,0,4.1,0.4,5.8,1.1c1.6,0.7,2.9,1.8,3.8,3.1c0.9,1.4,1.3,3,1.3,4.8      c0,1.7-0.4,3.2-1.2,4.5c-0.8,1.3-1.9,2.3-3.4,3l5,7.4H270L265.9,25.3z M269.1,14.4c-0.5-0.5-1.4-0.7-2.5-0.7h-2.9v5.6h2.9      c1.1,0,1.9-0.2,2.5-0.7c0.5-0.5,0.8-1.2,0.8-2.1C270,15.6,269.7,14.9,269.1,14.4z"></path>				</g>			</g>		</g>	</g>			<linearGradient id="XMLID_00000079482166050111314680000008096910806124870832_" gradientUnits="userSpaceOnUse" x1="9.2798" y1="18.0916" x2="75.0408" y2="56.0587">		<stop offset="0" style="stop-color:#FBB040"></stop>		<stop offset="1" style="stop-color:#ED1C24"></stop>	</linearGradient>	<path id="XMLID_29_" style="fill:url(#XMLID_00000079482166050111314680000008096910806124870832_);" d="M39.8,24.6  c-0.2-2.4,1.7-4.4,4-4.4h32.3C69.9,8.2,57,0,42.1,0C21.1,0,4,16.5,4,37c0,3.4,0.5,6.6,1.4,9.7H38c2.1,0,4.1,1.5,4.3,3.5  c0.2,2.4-1.7,4.4-4,4.4H8.5C15,66.3,27.6,74.1,42.1,74.1c21.1,0,38.3-16.6,38.3-37c0-3.1-0.4-6.1-1.2-9H44.1  C42,28.1,40,26.7,39.8,24.6z"></path></g></svg>